# xmcd
#
# Track frame offsets:
#	150
#	10473
#	31862
#	46620
#	62177
#	83185
#	95730
#	107874
#
# Disc length: 1594 seconds
#
# Revision: 0
# Processed by: cddbd v1.5.2PL0 Copyright (c) Steve Scherf et al.
# Submitted via: EZCDAudioConverter 6.0.9.1
#
DISCID=60063808
DTITLE=Jake Blount - Reparations
DYEAR=2017
DGENRE=Old-Time Country
TTITLE0=Wiley Lawes
TTITLE1=John Henry
TTITLE2=We're Gonna Hunt the Buffalo
TTITLE3=Rolling Rover
TTITLE4=See That My Grave is Kept Clean
TTITLE5=Tie Your Dog, Sally Gal
TTITLE6=Running Home to Doris
TTITLE7=The Rabbit
EXTD=
EXTT0=
EXTT1=
EXTT2=
EXTT3=
EXTT4=
EXTT5=
EXTT6=
EXTT7=
PLAYORDER=
